<svg width="36" height="34" viewBox="0 0 36 34" fill="none" xmlns="http://www.w3.org/2000/svg">
<g opacity="0.5">
<path opacity="0.5" fill-rule="evenodd" clip-rule="evenodd" d="M29.3577 16.1851H29.3579L27.6724 21.8294H27.6723L25.9868 27.4739H31.6314L33.3169 21.8295H33.3169L35.0024 16.185H35.0022L35.0727 15.9491C35.878 13.252 33.8579 10.5405 31.0432 10.5405L29.3577 16.1851ZM26.5971 33.1186C28.5842 33.1186 30.3354 31.8139 30.904 29.9099L31.6313 27.4741H25.9868L24.3013 33.1186H26.5971Z" fill="white"/>
<path fill-rule="evenodd" clip-rule="evenodd" d="M27.1864 12.4689H34.0697L34.1556 12.1812C35.1377 8.89224 32.6743 5.58569 29.2419 5.58569L27.1864 12.4689ZM29.959 26.2355L32.0144 19.3522H25.1312L23.0757 26.2355H29.959ZM32.0145 19.3522H25.1312L27.1866 12.4689H34.0699L32.0145 19.3522ZM21.0203 33.1187H23.8051C26.237 33.1187 28.3803 31.5219 29.0762 29.1916L29.9589 26.2355H23.0757L21.0203 33.1187Z" fill="white"/>
</g>
<path fill-rule="evenodd" clip-rule="evenodd" d="M16.4595 8.79513H24.5673L22.1462 16.9029H30.2541L32.6752 8.79513L32.6752 8.79499L32.7764 8.45616C33.9332 4.58212 31.0316 0.687348 26.9885 0.687256H26.9884H18.8806L16.4595 8.79513ZM19.7252 25.0109L17.3041 33.1186H19.0644C22.8309 33.1186 26.1505 30.6455 27.2282 27.0364L27.833 25.0109L27.8331 25.0107L30.2541 16.903H22.1464H22.1463H14.0385L11.6174 25.0109H19.7252ZM14.0384 16.9029H5.93049L8.35159 8.79499H16.4595L14.0384 16.9029ZM11.6174 25.0107L14.0384 16.903H5.93054L3.50948 25.0107L3.50944 25.0109L1.08838 33.1186H9.19626L11.6173 25.0109L11.6174 25.0107Z" fill="white"/>
<path d="M8.23905 8.79517H0.131176L2.55228 0.687288C6.5954 0.687288 9.49712 4.58211 8.34028 8.45619L8.23905 8.79517Z" fill="white"/>
</svg>
